<?xml version="1.0" encoding="UTF-8" ?>
<svg width="50pt" height="50pt" viewBox="0 0 500 500" version="1.1" xmlns="http://www.w3.org/2000/svg">
<g id="#ffffffff">
<path fill="#ffffff" opacity="1.00" d=" M 221.61 4.60 C 233.96 3.27 246.40 2.70 258.82 3.16 C 258.52 104.44 258.77 205.72 258.69 307.00 C 259.52 324.24 253.07 341.69 241.50 354.45 C 231.52 362.93 219.26 369.64 205.95 370.35 C 197.04 370.51 187.81 370.90 179.34 367.59 C 172.25 364.73 164.81 362.12 159.02 356.92 C 151.71 350.82 146.96 342.33 143.25 333.70 C 140.65 327.45 139.11 320.76 138.64 314.01 C 138.51 267.34 138.69 220.67 138.53 174.00 C 137.94 167.41 134.19 161.13 128.86 157.23 C 123.31 153.93 115.98 153.56 110.15 156.35 C 103.88 160.33 99.55 167.47 99.50 174.97 C 99.43 265.06 99.64 355.15 99.39 445.24 C 85.47 434.65 73.04 422.21 61.62 408.99 C 61.36 330.98 61.60 252.96 61.50 174.95 C 61.42 168.93 57.36 163.77 53.05 159.93 C 47.01 154.87 38.55 153.55 30.96 155.00 C 26.53 155.80 23.20 159.08 20.00 162.00 C 26.17 146.17 33.75 130.88 42.94 116.59 C 49.46 115.99 55.73 118.10 61.86 119.99 C 67.98 121.92 73.38 125.63 78.01 130.01 C 78.99 130.68 80.16 132.28 81.46 131.36 C 84.95 129.35 87.57 126.18 90.95 124.01 C 95.72 120.66 101.47 119.32 106.99 117.74 C 112.83 116.03 119.00 116.45 125.01 116.53 C 133.79 116.59 142.04 120.27 149.57 124.46 C 162.78 133.10 170.23 148.08 173.78 163.06 C 175.82 170.87 175.54 179.00 176.45 186.97 C 176.47 228.99 176.38 271.02 176.78 313.04 C 177.07 319.21 179.76 325.46 184.82 329.18 C 191.20 334.06 200.01 334.41 207.52 332.43 C 216.12 329.17 220.97 319.89 221.40 311.06 C 221.36 214.04 221.39 117.02 221.38 20.00 C 221.39 14.87 221.23 9.73 221.61 4.60 Z" />
<path fill="#ffffff" opacity="1.00" d=" M 369.42 120.74 C 388.12 116.76 407.45 116.83 426.37 118.94 C 438.87 120.95 450.63 126.12 461.44 132.57 C 464.44 134.39 467.48 136.27 469.85 138.91 C 478.90 157.39 485.97 176.87 490.31 197.00 C 490.62 199.51 490.39 202.08 489.29 204.39 C 485.02 214.33 476.69 222.00 467.47 227.36 C 451.42 235.82 432.82 237.28 414.99 236.59 C 410.64 236.74 405.28 235.40 401.88 238.91 C 397.96 243.00 398.06 249.22 398.81 254.46 C 400.24 258.31 403.29 262.78 407.95 262.38 C 423.27 262.69 439.06 260.98 453.82 266.17 C 469.15 270.19 483.66 280.38 489.62 295.48 C 490.88 298.17 490.62 301.19 490.06 304.02 C 485.95 322.73 479.53 340.93 471.22 358.19 C 472.77 347.56 473.79 336.10 468.73 326.18 C 463.70 316.89 455.49 308.97 445.38 305.53 C 434.34 301.79 422.67 299.73 411.00 300.46 C 398.24 301.44 385.33 296.68 375.98 288.02 C 366.96 279.91 362.34 267.88 360.93 256.06 C 359.63 243.15 362.74 229.75 369.92 218.92 C 378.02 207.65 390.88 199.21 405.00 198.64 C 413.99 198.44 423.00 198.81 431.99 198.51 C 438.29 197.79 445.70 195.95 448.67 189.69 C 450.25 184.80 450.04 179.28 448.38 174.43 C 445.34 168.22 439.79 163.31 433.35 160.82 C 424.26 157.19 414.47 155.84 404.81 154.70 C 400.85 154.24 396.94 155.17 393.02 155.44 C 380.77 155.69 368.52 159.47 358.42 166.43 C 351.18 172.20 343.78 178.42 339.79 186.99 C 331.84 200.12 329.25 215.84 329.60 231.00 C 329.62 270.68 329.58 310.36 329.62 350.03 C 329.90 360.63 319.72 370.02 309.21 369.19 C 304.13 368.51 298.80 366.51 295.90 362.03 C 293.74 358.74 291.42 355.14 291.53 351.06 C 291.61 307.69 291.55 264.32 291.56 220.94 C 292.20 207.52 295.40 194.32 300.02 181.73 C 301.97 176.14 305.44 171.28 308.01 165.99 C 312.72 156.82 320.30 149.69 327.48 142.49 C 333.74 136.28 341.54 131.99 349.48 128.31 C 355.64 124.66 362.52 122.52 369.42 120.74 Z" />
<path fill="#ffffff" opacity="1.00" d=" M 258.28 393.25 C 259.91 389.89 264.41 388.61 267.77 389.95 C 270.29 391.12 271.57 393.79 272.52 396.25 C 277.10 409.96 281.39 423.78 286.40 437.35 C 287.33 440.04 287.80 442.85 288.59 445.59 C 288.83 445.55 289.32 445.47 289.56 445.43 C 294.71 429.79 299.76 414.07 305.34 398.56 C 306.36 395.45 307.17 391.76 310.16 389.93 C 314.71 388.13 320.86 391.80 320.24 397.00 C 319.27 401.95 317.20 406.58 315.43 411.28 C 310.20 425.95 304.56 440.47 299.27 455.13 C 298.19 458.62 295.52 461.39 292.45 463.24 C 290.16 463.61 287.80 463.57 285.51 463.29 C 281.95 461.71 279.65 458.26 278.28 454.74 C 271.96 437.16 265.49 419.64 259.01 402.12 C 258.15 399.29 256.81 396.11 258.28 393.25 Z" />
<path fill="#ffffff" opacity="1.00" d=" M 184.47 402.39 C 179.44 400.18 180.10 391.27 185.95 390.70 C 201.97 390.39 218.01 390.70 234.03 390.56 C 236.73 390.35 239.75 391.32 241.18 393.77 C 242.68 397.13 241.46 401.51 237.59 402.46 C 231.36 403.19 225.04 402.15 218.80 402.87 C 218.06 421.15 218.80 439.51 218.46 457.81 C 217.95 463.60 209.23 465.75 205.96 461.12 C 204.21 459.57 204.47 457.09 204.39 455.00 C 204.45 437.79 204.35 420.59 204.45 403.38 C 197.99 401.50 191.05 403.57 184.47 402.39 Z" />
</g>
<g id="#2e9c45ff">
<path fill="#2e9c45" opacity="1.00" d=" M 258.82 3.16 C 266.55 2.79 274.27 3.80 281.93 4.74 C 317.39 9.34 351.83 21.76 381.97 41.03 C 415.35 62.22 443.43 91.64 463.28 125.81 C 465.32 130.25 468.81 134.05 469.85 138.91 C 467.48 136.27 464.44 134.39 461.44 132.57 C 450.63 126.12 438.87 120.95 426.37 118.94 C 407.45 116.83 388.12 116.76 369.42 120.74 C 362.52 122.52 355.64 124.66 349.48 128.31 C 341.54 131.99 333.74 136.28 327.48 142.49 C 320.30 149.69 312.72 156.82 308.01 165.99 C 305.44 171.28 301.97 176.14 300.02 181.73 C 295.40 194.32 292.20 207.52 291.56 220.94 C 291.55 264.32 291.61 307.69 291.53 351.06 C 291.42 355.14 293.74 358.74 295.90 362.03 C 298.80 366.51 304.13 368.51 309.21 369.19 C 319.72 370.02 329.90 360.63 329.62 350.03 C 329.58 310.36 329.62 270.68 329.60 231.00 C 329.25 215.84 331.84 200.12 339.79 186.99 C 343.78 178.42 351.18 172.20 358.42 166.43 C 368.52 159.47 380.77 155.69 393.02 155.44 C 396.94 155.17 400.85 154.24 404.81 154.70 C 414.47 155.84 424.26 157.19 433.35 160.82 C 439.79 163.31 445.34 168.22 448.38 174.43 C 450.04 179.28 450.25 184.80 448.67 189.69 C 445.70 195.95 438.29 197.79 431.99 198.51 C 423.00 198.81 413.99 198.44 405.00 198.64 C 390.88 199.21 378.02 207.65 369.92 218.92 C 362.74 229.75 359.63 243.15 360.93 256.06 C 362.34 267.88 366.96 279.91 375.98 288.02 C 385.33 296.68 398.24 301.44 411.00 300.46 C 422.67 299.73 434.34 301.79 445.38 305.53 C 455.49 308.97 463.70 316.89 468.73 326.18 C 473.79 336.10 472.77 347.56 471.22 358.19 C 470.87 360.72 469.51 362.94 468.38 365.19 C 458.93 383.33 447.10 400.21 433.46 415.45 C 426.20 423.18 418.66 430.65 410.94 437.91 C 400.54 446.32 389.87 454.45 378.48 461.49 C 370.07 466.48 361.49 471.16 352.71 475.44 C 335.49 482.80 317.71 489.04 299.29 492.61 C 288.99 494.92 278.49 496.00 268.02 497.19 C 260.02 497.65 252.01 497.32 244.00 497.43 C 234.01 497.69 224.08 496.25 214.19 495.00 C 172.57 488.82 132.50 471.86 99.43 445.83 L 99.39 445.24 C 99.64 355.15 99.43 265.06 99.50 174.97 C 99.55 167.47 103.88 160.33 110.15 156.35 C 115.98 153.56 123.31 153.93 128.86 157.23 C 134.19 161.13 137.94 167.41 138.53 174.00 C 138.69 220.67 138.51 267.34 138.64 314.01 C 139.11 320.76 140.65 327.45 143.25 333.70 C 146.96 342.33 151.71 350.82 159.02 356.92 C 164.81 362.12 172.25 364.73 179.34 367.59 C 187.81 370.90 197.04 370.51 205.95 370.35 C 219.26 369.64 231.52 362.93 241.50 354.45 C 253.07 341.69 259.52 324.24 258.69 307.00 C 258.77 205.72 258.52 104.44 258.82 3.16 M 258.28 393.25 C 256.81 396.11 258.15 399.29 259.01 402.12 C 265.49 419.64 271.96 437.16 278.28 454.74 C 279.65 458.26 281.95 461.71 285.51 463.29 C 287.80 463.57 290.16 463.61 292.45 463.24 C 295.52 461.39 298.19 458.62 299.27 455.13 C 304.56 440.47 310.20 425.95 315.43 411.28 C 317.20 406.58 319.27 401.95 320.24 397.00 C 320.86 391.80 314.71 388.13 310.16 389.93 C 307.17 391.76 306.36 395.45 305.34 398.56 C 299.76 414.07 294.71 429.79 289.56 445.43 C 289.32 445.47 288.83 445.55 288.59 445.59 C 287.80 442.85 287.33 440.04 286.40 437.35 C 281.39 423.78 277.10 409.96 272.52 396.25 C 271.57 393.79 270.29 391.12 267.77 389.95 C 264.41 388.61 259.91 389.89 258.28 393.25 M 184.47 402.39 C 191.05 403.57 197.99 401.50 204.45 403.38 C 204.35 420.59 204.45 437.79 204.39 455.00 C 204.47 457.09 204.21 459.57 205.96 461.12 C 209.23 465.75 217.95 463.60 218.46 457.81 C 218.80 439.51 218.06 421.15 218.80 402.87 C 225.04 402.15 231.36 403.19 237.59 402.46 C 241.46 401.51 242.68 397.13 241.18 393.77 C 239.75 391.32 236.73 390.35 234.03 390.56 C 218.01 390.70 201.97 390.39 185.95 390.70 C 180.10 391.27 179.44 400.18 184.47 402.39 Z" />
<path fill="#2e9c45" opacity="1.00" d=" M 490.31 197.00 C 491.35 198.90 492.28 200.91 492.51 203.10 C 493.46 209.73 495.18 216.27 495.50 222.98 C 497.12 233.57 496.51 244.32 496.67 255.00 C 496.93 265.39 495.46 275.69 494.47 286.00 C 493.71 292.16 492.80 298.38 490.06 304.02 C 490.62 301.19 490.88 298.17 489.62 295.48 C 483.66 280.38 469.15 270.19 453.82 266.17 C 439.06 260.98 423.27 262.69 407.95 262.38 C 403.29 262.78 400.24 258.31 398.81 254.46 C 398.06 249.22 397.96 243.00 401.88 238.91 C 405.28 235.40 410.64 236.74 414.99 236.59 C 432.82 237.28 451.42 235.82 467.47 227.36 C 476.69 222.00 485.02 214.33 489.29 204.39 C 490.39 202.08 490.62 199.51 490.31 197.00 Z" />
<path fill="#2e9c45" opacity="1.00" d=" M 3.63 227.96 C 3.58 226.15 4.40 224.50 5.19 222.93 C 4.95 227.97 4.38 232.99 3.74 238.00 C 3.22 244.65 3.49 251.33 3.48 257.99 C 3.42 264.04 4.84 269.98 5.10 276.02 C 4.40 275.11 3.51 274.21 3.64 272.96 C 3.11 257.97 3.12 242.95 3.63 227.96 Z" />
</g>
<g id="#f47321ff">
<path fill="#f47321" opacity="1.00" d=" M 208.99 6.15 C 213.19 5.64 217.34 4.44 221.61 4.60 C 221.23 9.73 221.39 14.87 221.38 20.00 C 221.39 117.02 221.36 214.04 221.40 311.06 C 220.97 319.89 216.12 329.17 207.52 332.43 C 200.01 334.41 191.20 334.06 184.82 329.18 C 179.76 325.46 177.07 319.21 176.78 313.04 C 176.38 271.02 176.47 228.99 176.45 186.97 C 175.54 179.00 175.82 170.87 173.78 163.06 C 170.23 148.08 162.78 133.10 149.57 124.46 C 142.04 120.27 133.79 116.59 125.01 116.53 C 119.00 116.45 112.83 116.03 106.99 117.74 C 101.47 119.32 95.72 120.66 90.95 124.01 C 87.57 126.18 84.95 129.35 81.46 131.36 C 80.16 132.28 78.99 130.68 78.01 130.01 C 73.38 125.63 67.98 121.92 61.86 119.99 C 55.73 118.10 49.46 115.99 42.94 116.59 C 43.28 115.74 43.69 114.93 44.17 114.16 C 60.86 88.81 82.14 66.48 106.82 48.80 C 137.02 27.03 172.27 12.28 208.99 6.15 Z" />
<path fill="#f47321" opacity="1.00" d=" M 20.00 162.00 C 23.20 159.08 26.53 155.80 30.96 155.00 C 38.55 153.55 47.01 154.87 53.05 159.93 C 57.36 163.77 61.42 168.93 61.50 174.95 C 61.60 252.96 61.36 330.98 61.62 408.99 C 58.93 407.13 57.37 404.14 55.30 401.69 C 28.80 367.68 11.80 326.51 5.79 283.87 C 5.46 281.26 5.29 278.64 5.10 276.02 C 4.84 269.98 3.42 264.04 3.48 257.99 C 3.49 251.33 3.22 244.65 3.74 238.00 C 4.38 232.99 4.95 227.97 5.19 222.93 C 6.94 204.87 11.07 187.05 16.90 169.88 C 17.91 167.25 18.52 164.42 20.00 162.00 Z" />
</g>
</svg>
